<svg width="23" height="23" viewBox="0 0 23 23" fill="none" xmlns="http://www.w3.org/2000/svg">
<path d="M11.2191 22.2058C10.6243 22.2058 10.0271 22.1582 9.4453 22.0637C6.87709 21.649 4.52336 20.3253 2.81862 18.3366C1.09538 16.3263 0.14624 13.7574 0.14624 11.1026C0.14624 4.98028 5.1138 0 11.2191 0C17.3244 0 22.2925 4.9809 22.2925 11.1026C22.2925 13.7982 21.3175 16.3974 19.5462 18.4213C17.7921 20.4266 15.3823 21.7324 12.7605 22.0989C12.2533 22.1699 11.7343 22.2058 11.2191 22.2058ZM11.2191 0.741573C5.52119 0.741573 0.885826 5.38938 0.885826 11.1026C0.885826 16.2176 4.53507 20.5199 9.56301 21.3313C10.5769 21.4951 11.6382 21.5069 12.6582 21.3641C17.7287 20.6559 21.5523 16.2442 21.5523 11.1026C21.5523 5.38938 16.917 0.741573 11.2185 0.741573H11.2191Z" fill="#FFE8D3"/>
<path d="M14.5712 4.66064H7.86749C6.01544 4.66064 4.50916 6.17098 4.50916 8.02801V14.1775C4.50916 16.0345 6.01544 17.5449 7.86749 17.5449H14.5712C16.4233 17.5449 17.9296 16.0345 17.9296 14.1775V8.02801C17.9296 6.17098 16.4233 4.66064 14.5712 4.66064ZM5.69372 8.02801C5.69372 6.82604 6.66874 5.8484 7.86749 5.8484H14.5712C15.77 5.8484 16.745 6.82604 16.745 8.02801V14.1775C16.745 15.3795 15.77 16.3571 14.5712 16.3571H7.86749C6.66874 16.3571 5.69372 15.3795 5.69372 14.1775V8.02801Z" fill="#FFE8D3"/>
<path d="M11.2191 14.2348C12.9417 14.2348 14.3432 12.8295 14.3432 11.1023C14.3432 9.37501 12.9417 7.96973 11.2191 7.96973C9.49644 7.96973 8.09491 9.37501 8.09491 11.1023C8.09491 12.8295 9.49644 14.2348 11.2191 14.2348ZM11.2191 9.1581C12.2884 9.1581 13.158 10.0301 13.158 11.1023C13.158 12.1744 12.2884 13.0464 11.2191 13.0464C10.1497 13.0464 9.28009 12.1744 9.28009 11.1023C9.28009 10.0301 10.1497 9.1581 11.2191 9.1581Z" fill="#FFE8D3"/>
<path d="M14.6328 8.47542C15.0969 8.47542 15.4747 8.0966 15.4747 7.63127C15.4747 7.16593 15.0969 6.78711 14.6328 6.78711C14.1688 6.78711 13.791 7.16593 13.791 7.63127C13.791 8.0966 14.1688 8.47542 14.6328 8.47542Z" fill="#FFE8D3"/>
</svg>
