<svg width="23" height="23" viewBox="0 0 23 23" fill="none" xmlns="http://www.w3.org/2000/svg">
<path d="M11.3654 22.2052C10.7706 22.2052 10.174 22.1576 9.5916 22.0637C7.02339 21.649 4.66966 20.3253 2.96492 18.3366C1.24168 16.3264 0.292542 13.7574 0.292542 11.1026C0.292542 4.98028 5.26009 0 11.3654 0C17.4706 0 22.4382 4.9809 22.4382 11.1026C22.4382 13.7982 21.4632 16.3974 19.6919 18.4213C17.9378 20.4266 15.528 21.7324 12.9062 22.0989C12.3989 22.1699 11.88 22.2058 11.3647 22.2058L11.3654 22.2052ZM11.3654 0.740954C5.66747 0.740954 1.03213 5.38876 1.03213 11.102C1.03213 16.217 4.68137 20.5193 9.70932 21.3307C10.7238 21.4945 11.7845 21.5062 12.8045 21.3635C17.875 20.6553 21.6986 16.2435 21.6986 11.102C21.6986 5.38876 17.0633 0.740954 11.3654 0.740954Z" fill="#FFE8D3"/>
<path fill-rule="evenodd" clip-rule="evenodd" d="M10.3762 13.9336C10.3633 13.9787 10.3509 14.0164 10.3411 14.0541C9.76789 16.3054 9.70441 16.8053 9.1152 17.851C8.83416 18.3478 8.51799 18.8187 8.16792 19.2692C8.12848 19.3199 8.0915 19.386 8.01261 19.37C7.92633 19.3514 7.91955 19.2735 7.91031 19.2043C7.81601 18.5202 7.76424 17.8343 7.78642 17.1434C7.81601 16.2436 7.92693 15.9346 9.08377 11.0575C9.10041 10.9834 9.08192 10.9216 9.05665 10.8542C8.77993 10.1052 8.72508 9.34512 8.96667 8.57512C9.49055 6.91152 11.3709 6.78422 11.7001 8.15675C11.9028 9.00585 11.3666 10.1164 10.9549 11.7589C10.6141 13.1142 12.2048 14.077 13.5644 13.0882C14.818 12.1767 15.3049 9.99029 15.2125 8.44102C15.03 5.35175 11.652 4.68433 9.50842 5.67927C7.05115 6.81821 6.49277 9.87225 7.60215 11.2676C7.74267 11.445 8.00767 11.5538 7.96145 11.7336C7.88996 12.0129 7.8271 12.2947 7.75006 12.5728C7.69274 12.7798 7.36363 12.8546 7.15531 12.7699C6.74608 12.6043 6.40586 12.3429 6.12913 11.9993C5.18677 10.8295 4.91744 8.51579 6.16303 6.5568C7.54297 4.38647 10.11 3.50894 12.4538 3.77529C15.2532 4.09478 17.0226 6.01237 17.3536 8.18765C17.5046 9.17888 17.3961 11.623 16.0081 13.3496C14.4119 15.3346 11.8246 15.4662 10.6307 14.2475C10.5389 14.1542 10.465 14.0448 10.375 13.933L10.3762 13.9336Z" fill="#FFE8D3"/>
</svg>
