<svg width="23" height="23" viewBox="0 0 23 23" fill="none" xmlns="http://www.w3.org/2000/svg">
<path d="M11.0728 22.2058C10.4781 22.2058 9.88086 22.1582 9.29905 22.0637C6.73084 21.649 4.37711 20.3253 2.67236 18.3366C0.949126 16.3263 0 13.7574 0 11.1026C0 4.98028 4.96754 0 11.0728 0C17.1781 0 22.1463 4.9809 22.1463 11.1026C22.1463 13.7982 21.1712 16.3974 19.3999 18.4213C17.6459 20.4266 15.2361 21.7324 12.6142 22.0989C12.107 22.1699 11.5881 22.2058 11.0728 22.2058ZM11.0728 0.741573C5.37493 0.741573 0.739586 5.38938 0.739586 11.1026C0.739586 16.2176 4.38881 20.5199 9.41676 21.3313C10.4306 21.4951 11.4919 21.5069 12.5119 21.3641C17.5824 20.6559 21.4061 16.2442 21.4061 11.1026C21.4061 5.38938 16.7707 0.741573 11.0722 0.741573H11.0728Z" fill="#FFE8D3"/>
<path d="M12.5631 8.98776V11.3256H15.4475L14.9908 14.4754H12.5631V21.7317C12.0762 21.7997 11.5782 21.8349 11.0728 21.8349C10.4892 21.8349 9.91661 21.7879 9.35822 21.6977V14.4754H6.69818V11.3256H9.35822V8.46557C9.35822 6.69074 10.793 5.25146 12.5637 5.25146V5.25332C12.5686 5.25332 12.5736 5.25146 12.5785 5.25146H15.4481V7.97489H13.5732C13.0155 7.97489 12.5637 8.42787 12.5637 8.98714L12.5631 8.98776Z" fill="#FFE8D3"/>
</svg>
