<svg width="23" height="23" viewBox="0 0 23 23" fill="none" xmlns="http://www.w3.org/2000/svg">
<path d="M11.5111 22.2058C10.9157 22.2058 10.3191 22.1582 9.73728 22.0636C7.16907 21.649 4.81534 20.3253 3.11059 18.3366C1.38736 16.3263 0.438232 13.7574 0.438232 11.1026C0.438232 4.98028 5.40578 0 11.5111 0C17.6163 0 22.5845 4.98089 22.5845 11.1026C22.5845 13.7982 21.6095 16.3974 19.8382 18.4213C18.0841 20.4266 15.6743 21.7324 13.0525 22.0989C12.5452 22.1699 12.0263 22.2058 11.5111 22.2058ZM11.5111 0.741573C5.81317 0.741573 1.17782 5.38938 1.17782 11.1026C1.17782 16.2182 4.82706 20.5199 9.85501 21.3313C10.8682 21.4951 11.9302 21.5069 12.9502 21.3641C18.0206 20.6559 21.8443 16.2442 21.8443 11.1026C21.8443 5.38938 17.2089 0.741573 11.5104 0.741573H11.5111Z" fill="#FFE8D3"/>
<path d="M6.01592 7.47803C5.73056 7.2123 5.5882 6.88354 5.5882 6.49236C5.5882 6.10118 5.73056 5.75759 6.01592 5.49186C6.30128 5.22613 6.6686 5.09326 7.11913 5.09326C7.56966 5.09326 7.9222 5.22613 8.20694 5.49186C8.4923 5.75759 8.63467 6.0913 8.63467 6.49236C8.63467 6.89343 8.4923 7.2123 8.20694 7.47803C7.92159 7.74377 7.55918 7.87663 7.11913 7.87663C6.67907 7.87663 6.30128 7.74377 6.01592 7.47803ZM8.39429 9.00197V17.1451H5.82856V9.00197H8.39429Z" fill="#FFE8D3"/>
<path d="M16.9371 9.80569C17.4961 10.4144 17.7759 11.2505 17.7759 12.3147V17.0014H15.3384V12.6453C15.3384 12.1089 15.1997 11.6918 14.9224 11.3945C14.645 11.0973 14.2721 10.9489 13.8037 10.9489C13.3353 10.9489 12.9625 11.0979 12.6851 11.3945C12.4078 11.6918 12.2691 12.1089 12.2691 12.6453V17.0014H9.81738V8.97945H12.2691V10.0436C12.5175 9.68889 12.8522 9.40895 13.2731 9.20254C13.6934 8.99676 14.1668 8.89355 14.6925 8.89355C15.6293 8.89355 16.3775 9.19822 16.9365 9.80631L16.9371 9.80569Z" fill="#FFE8D3"/>
</svg>
