<svg width="226" height="225" viewBox="0 0 226 225" fill="none" xmlns="http://www.w3.org/2000/svg">
<mask id="path-1-inside-1_19_145" fill="white">
<path fill-rule="evenodd" clip-rule="evenodd" d="M225.089 0.0506497V165C225.089 198.137 198.226 225 165.089 225H0.0013136C0.000438099 224.741 0 224.483 0 224.224C0 100.416 100.367 0.0488281 224.175 0.0488281C224.48 0.0488281 224.784 0.0494357 225.089 0.0506497Z"/>
</mask>
<path fill-rule="evenodd" clip-rule="evenodd" d="M225.089 0.0506497V165C225.089 198.137 198.226 225 165.089 225H0.0013136C0.000438099 224.741 0 224.483 0 224.224C0 100.416 100.367 0.0488281 224.175 0.0488281C224.48 0.0488281 224.784 0.0494357 225.089 0.0506497Z" fill="#592D1E"/>
<path d="M225.089 0.0506497H226.089V-0.945369L225.093 -0.949342L225.089 0.0506497ZM0.0013136 225L-0.998681 225.003L-0.995305 226H0.0013136V225ZM224.089 0.0506497V165H226.089V0.0506497H224.089ZM224.089 165C224.089 197.585 197.674 224 165.089 224V226C198.778 226 226.089 198.689 226.089 165H224.089ZM165.089 224H0.0013136V226H165.089V224ZM1.00131 224.996C1.00044 224.739 1 224.482 1 224.224H-1C-1 224.484 -0.99956 224.744 -0.998681 225.003L1.00131 224.996ZM1 224.224C1 100.968 100.919 1.04883 224.175 1.04883V-0.951172C99.8144 -0.951172 -1 99.8633 -1 224.224H1ZM224.175 1.04883C224.479 1.04883 224.782 1.04943 225.085 1.05064L225.093 -0.949342C224.787 -0.950562 224.481 -0.951172 224.175 -0.951172V1.04883Z" fill="#F2C9A3" mask="url(#path-1-inside-1_19_145)"/>
</svg>
