<svg width="100" height="24" viewBox="0 0 100 24" fill="none" xmlns="http://www.w3.org/2000/svg">
<path d="M0 0H4.70373L8.35082 14.3657H8.41899V0H11.7593V24H7.90772L3.4085 6.48H3.34033V24H0V0Z" fill="#FFE8D3"/>
<path d="M14.546 0H18.2954V24H14.546V0Z" fill="#FFE8D3"/>
<path d="M21.1034 0H26.7615C28.693 0 30.1018 0.457143 30.988 1.37143C31.8743 2.26286 32.3174 3.64571 32.3174 5.52V6.48C32.3174 7.71429 32.1128 8.72 31.7038 9.49714C31.3175 10.2743 30.7154 10.8343 29.8973 11.1771V11.2457C31.7606 11.8857 32.6923 13.5543 32.6923 16.2514V18.3086C32.6923 20.16 32.2037 21.5771 31.2266 22.56C30.2723 23.52 28.8634 24 27.0001 24H21.1034V0ZM26.3184 9.77143C27.0683 9.77143 27.625 9.57714 27.9886 9.18857C28.3749 8.8 28.568 8.14857 28.568 7.23429V5.89714C28.568 5.02857 28.4089 4.4 28.0908 4.01143C27.7954 3.62286 27.3182 3.42857 26.6592 3.42857H24.8527V9.77143H26.3184ZM27.0001 20.5714C27.6591 20.5714 28.1476 20.4 28.4658 20.0571C28.7839 19.6914 28.9429 19.0743 28.9429 18.2057V16.1143C28.9429 15.0171 28.7498 14.2629 28.3635 13.8514C27.9999 13.4171 27.3864 13.2 26.5229 13.2H24.8527V20.5714H27.0001Z" fill="#FFE8D3"/>
<path d="M37.7811 0H42.8597L46.7454 24H42.9961L42.3144 19.2343V19.3029H38.0537L37.3721 24H33.8954L37.7811 0ZM41.8713 16.0457L40.2011 4.18286H40.1329L38.4969 16.0457H41.8713Z" fill="#FFE8D3"/>
<path d="M48.5644 0H52.3138V10.1143L57.0857 0H60.835L56.3699 8.81143L60.9032 24H56.9834L53.8135 13.3029L52.3138 16.3543V24H48.5644V0Z" fill="#FFE8D3"/>
<path d="M62.6777 0H72.9032V3.42857H66.4271V9.77143H71.5739V13.2H66.4271V20.5714H72.9032V24H62.6777V0Z" fill="#FFE8D3"/>
<path d="M75.0602 0H80.616C82.5475 0 83.9564 0.457143 84.8426 1.37143C85.7288 2.26286 86.1719 3.64571 86.1719 5.52V6.99429C86.1719 9.48571 85.3539 11.0629 83.7178 11.7257V11.7943C84.6267 12.0686 85.263 12.6286 85.6265 13.4743C86.0128 14.32 86.206 15.4514 86.206 16.8686V21.0857C86.206 21.7714 86.2287 22.3314 86.2741 22.7657C86.3196 23.1771 86.4332 23.5886 86.615 24H82.7975C82.6611 23.6114 82.5702 23.2457 82.5248 22.9029C82.4793 22.56 82.4566 21.9429 82.4566 21.0514V16.6629C82.4566 15.5657 82.2748 14.8 81.9113 14.3657C81.5704 13.9314 80.9683 13.7143 80.1048 13.7143H78.8095V24H75.0602V0ZM80.1729 10.2857C80.9228 10.2857 81.4795 10.0914 81.8431 9.70286C82.2294 9.31429 82.4225 8.66286 82.4225 7.74857V5.89714C82.4225 5.02857 82.2635 4.4 81.9454 4.01143C81.6499 3.62286 81.1728 3.42857 80.5138 3.42857H78.8095V10.2857H80.1729Z" fill="#FFE8D3"/>
<path d="M91.7174 13.7829L87.1841 0H91.172L93.7284 8.81143H93.7965L96.3529 0H100L95.4667 13.7829V24H91.7174V13.7829Z" fill="#FFE8D3"/>
</svg>
