<svg width="161" height="26" viewBox="0 0 161 26" fill="none" xmlns="http://www.w3.org/2000/svg">
<path d="M2.78526 25.5012H0V3.73372H3.90542L17.1505 18.6837V3.73372H19.9206V25.5012H16.0152L2.78526 10.5663V25.5012Z" fill="#592D1E" fill-opacity="0.65"/>
<path d="M29.7145 3.82442C29.7145 4.20736 29.6388 4.57015 29.4874 4.91279C29.3461 5.25543 29.1493 5.55271 28.897 5.80465C28.6448 6.05659 28.3471 6.25814 28.0039 6.4093C27.6608 6.55039 27.2975 6.62093 26.9141 6.62093C26.5306 6.62093 26.1673 6.55039 25.8242 6.4093C25.4912 6.25814 25.1985 6.05659 24.9462 5.80465C24.6939 5.55271 24.4921 5.25543 24.3407 4.91279C24.1994 4.57015 24.1288 4.20736 24.1288 3.82442C24.1288 3.44147 24.1994 3.08372 24.3407 2.75116C24.4921 2.40853 24.6939 2.11124 24.9462 1.8593C25.1985 1.60736 25.4912 1.41085 25.8242 1.26977C26.1673 1.1186 26.5306 1.04302 26.9141 1.04302C27.2975 1.04302 27.6608 1.1186 28.0039 1.26977C28.3471 1.41085 28.6448 1.60736 28.897 1.8593C29.1493 2.11124 29.3461 2.40853 29.4874 2.75116C29.6388 3.08372 29.7145 3.44147 29.7145 3.82442ZM29.4874 25.5012H24.3559V8.05698H29.4874V25.5012Z" fill="#592D1E" fill-opacity="0.65"/>
<path d="M48.8328 19.9233C48.8328 20.6891 48.7218 21.3694 48.4998 21.964C48.2778 22.5585 47.9751 23.0775 47.5916 23.5209C47.2081 23.9543 46.754 24.3221 46.2292 24.6244C45.7045 24.9167 45.1393 25.1535 44.5338 25.3349C43.9384 25.5163 43.3128 25.6473 42.6568 25.7279C42.0009 25.8085 41.35 25.8488 40.7041 25.8488C39.8362 25.8488 39.0693 25.7934 38.4033 25.6826C37.7372 25.5717 37.1014 25.3953 36.496 25.1535C35.8905 24.9016 35.285 24.5791 34.6795 24.186C34.0841 23.793 33.418 23.3143 32.6814 22.75L35.6634 20.3163C35.9359 20.8302 36.2941 21.2988 36.7382 21.7221C37.1923 22.1353 37.6615 22.493 38.1459 22.7953C38.6303 23.0977 39.0996 23.3295 39.5537 23.4907C40.0078 23.6519 40.3761 23.7326 40.6587 23.7326C40.8908 23.7326 41.1532 23.7275 41.4458 23.7174C41.7385 23.6973 42.0362 23.6671 42.3389 23.6267C42.6417 23.5764 42.9394 23.5058 43.232 23.4151C43.5247 23.3244 43.782 23.2035 44.004 23.0523C44.2361 22.8911 44.4178 22.6946 44.549 22.4628C44.6903 22.2209 44.7609 21.9337 44.7609 21.6012C44.7609 21.2585 44.6701 20.9612 44.4884 20.7093C44.3169 20.4473 44.0898 20.2205 43.8073 20.0291C43.5247 19.8376 43.2018 19.6764 42.8385 19.5453C42.4752 19.4143 42.1068 19.2984 41.7335 19.1977C41.3702 19.0969 41.017 19.0112 40.6738 18.9407C40.3307 18.8601 40.033 18.7845 39.7807 18.714C39.3165 18.5829 38.8271 18.4519 38.3124 18.3209C37.7978 18.1798 37.2881 18.0236 36.7836 17.8523C36.279 17.6709 35.7946 17.4593 35.3304 17.2174C34.8763 16.9756 34.4726 16.6884 34.1194 16.3558C33.7763 16.0132 33.4988 15.6151 33.2869 15.1616C33.085 14.6981 32.9841 14.1589 32.9841 13.5442C32.9841 12.4155 33.2061 11.4733 33.6502 10.7174C34.1043 9.95155 34.6997 9.34186 35.4363 8.88837C36.173 8.42481 37.0106 8.09729 37.9491 7.90581C38.8876 7.71434 39.8413 7.6186 40.8101 7.6186C41.4761 7.6186 42.1775 7.68915 42.9142 7.83023C43.6508 7.96124 44.3673 8.16279 45.0636 8.43488C45.76 8.6969 46.4109 9.01938 47.0164 9.40233C47.6218 9.78527 48.1264 10.2236 48.5301 10.7174L45.548 13.1663C45.326 12.5616 45.0334 12.0426 44.6701 11.6093C44.3169 11.176 43.9284 10.8233 43.5045 10.5512C43.0908 10.269 42.6619 10.0624 42.2178 9.93139C41.7839 9.80039 41.3802 9.73488 41.0069 9.73488C40.6436 9.73488 40.2349 9.75 39.7807 9.78023C39.3266 9.81046 38.8977 9.89612 38.4941 10.0372C38.1005 10.1783 37.7624 10.395 37.4799 10.6872C37.2074 10.9694 37.0712 11.3624 37.0712 11.8663C37.0712 12.2291 37.1519 12.5415 37.3134 12.8035C37.4849 13.0554 37.7069 13.2771 37.9794 13.4686C38.2519 13.65 38.5597 13.8062 38.9028 13.9372C39.256 14.0581 39.6142 14.169 39.9775 14.2698C40.3408 14.3605 40.694 14.4411 41.0371 14.5116C41.3802 14.5822 41.688 14.6578 41.9605 14.7384C42.4247 14.8694 42.9142 15.0054 43.4288 15.1465C43.9536 15.2775 44.4683 15.4337 44.9728 15.6151C45.4774 15.7864 45.9618 15.993 46.426 16.2349C46.9003 16.4667 47.3141 16.7539 47.6673 17.0965C48.0205 17.4391 48.303 17.8422 48.5149 18.3058C48.7269 18.7593 48.8328 19.2984 48.8328 19.9233Z" fill="#592D1E" fill-opacity="0.65"/>
<path d="M68.2085 12.3651L65.9985 13.2419C65.6453 12.1333 65.0549 11.2818 64.2274 10.6872C63.3999 10.0926 62.4059 9.79535 61.2454 9.79535C60.6197 9.79535 60.0596 9.89612 59.5652 10.0977C59.0808 10.2891 58.6519 10.5562 58.2785 10.8988C57.9152 11.2415 57.6024 11.6395 57.34 12.093C57.0877 12.5465 56.8808 13.0302 56.7193 13.5442C56.5579 14.0581 56.4418 14.5922 56.3712 15.1465C56.3005 15.6907 56.2652 16.2198 56.2652 16.7337C56.2652 17.288 56.2955 17.8473 56.3561 18.4116C56.4166 18.976 56.5175 19.5202 56.6588 20.0442C56.8102 20.5581 57.007 21.0419 57.2491 21.4953C57.4913 21.9388 57.7941 22.3267 58.1574 22.6593C58.5308 22.9919 58.9698 23.2539 59.4743 23.4453C59.989 23.6368 60.5793 23.7326 61.2454 23.7326C61.7802 23.7326 62.2899 23.6519 62.7743 23.4907C63.2586 23.3295 63.7027 23.1027 64.1063 22.8105C64.51 22.5182 64.8682 22.1705 65.1811 21.7674C65.4939 21.3643 65.7412 20.9159 65.9228 20.4221L68.148 21.2384C67.815 22.0345 67.3709 22.7248 66.8159 23.3093C66.271 23.8837 65.6503 24.3624 64.954 24.7453C64.2577 25.1182 63.5109 25.3953 62.7137 25.5767C61.9165 25.7581 61.1092 25.8488 60.2917 25.8488C58.9698 25.8488 57.7436 25.6271 56.6134 25.1837C55.4831 24.7302 54.5043 24.1004 53.6768 23.2942C52.8593 22.4779 52.2185 21.5155 51.7543 20.407C51.2901 19.2884 51.058 18.064 51.058 16.7337C51.058 15.3934 51.2851 14.164 51.7392 13.0453C52.2034 11.9267 52.8442 10.9643 53.6616 10.1581C54.479 9.35194 55.4529 8.72713 56.5831 8.28372C57.7134 7.84031 58.9496 7.6186 60.2917 7.6186C61.1394 7.6186 61.9669 7.71434 62.7743 7.90581C63.5816 8.08721 64.3283 8.37442 65.0146 8.76744C65.7109 9.15039 66.3315 9.63915 66.8765 10.2337C67.4315 10.8283 67.8755 11.5388 68.2085 12.3651Z" fill="#592D1E" fill-opacity="0.65"/>
<path d="M88.8406 25.5012H83.7242V23.4151C83.1187 24.2415 82.3871 24.8562 81.5293 25.2593C80.6816 25.6523 79.7482 25.8488 78.7289 25.8488C77.3969 25.8488 76.2061 25.612 75.1565 25.1384C74.107 24.6647 73.219 24.0198 72.4924 23.2035C71.7658 22.3771 71.2108 21.4097 70.8273 20.3012C70.4438 19.1926 70.2521 18.0035 70.2521 16.7337C70.2521 15.464 70.4438 14.2748 70.8273 13.1663C71.2108 12.0578 71.7658 11.0953 72.4924 10.2791C73.219 9.45271 74.107 8.80271 75.1565 8.32907C76.2061 7.85543 77.3969 7.6186 78.7289 7.6186C79.4051 7.6186 80.0459 7.71938 80.6514 7.92093C81.267 8.12248 81.827 8.40969 82.3316 8.78256C82.8463 9.14535 83.2953 9.58876 83.6788 10.1128C84.0724 10.6267 84.3802 11.2012 84.6022 11.836L86.8728 8.04186H88.8406V25.5012ZM83.694 16.7337C83.694 16.2802 83.6687 15.8015 83.6183 15.2977C83.5779 14.7938 83.5022 14.295 83.3912 13.8012C83.2802 13.3074 83.1238 12.8388 82.922 12.3953C82.7302 11.9419 82.4779 11.5438 82.1651 11.2012C81.8624 10.8484 81.494 10.5713 81.0601 10.3698C80.6261 10.1682 80.1216 10.0674 79.5463 10.0674C78.9711 10.0674 78.4716 10.1733 78.0478 10.3849C77.6239 10.5864 77.2606 10.8636 76.9579 11.2163C76.6551 11.5589 76.4028 11.957 76.201 12.4105C76.0093 12.864 75.8579 13.3376 75.7469 13.8314C75.6359 14.3252 75.5552 14.824 75.5047 15.3279C75.4643 15.8217 75.4441 16.2903 75.4441 16.7337C75.4441 17.1771 75.4643 17.6508 75.5047 18.1546C75.5552 18.6585 75.6359 19.1574 75.7469 19.6512C75.8579 20.145 76.0093 20.6186 76.201 21.0721C76.4028 21.5256 76.6551 21.9287 76.9579 22.2814C77.2606 22.624 77.6239 22.9012 78.0478 23.1128C78.4716 23.3143 78.9711 23.4151 79.5463 23.4151C80.0711 23.4151 80.5353 23.3093 80.939 23.0977C81.3527 22.876 81.711 22.5837 82.0137 22.2209C82.3266 21.8581 82.5889 21.445 82.8009 20.9814C83.0128 20.5178 83.1843 20.0391 83.3155 19.5453C83.4467 19.0515 83.5426 18.5628 83.6031 18.0791C83.6637 17.5853 83.694 17.1368 83.694 16.7337Z" fill="#592D1E" fill-opacity="0.65"/>
<path d="M98.2409 25.5012H93.1245V0H95.0923L98.2409 5.30581V25.5012Z" fill="#592D1E" fill-opacity="0.65"/>
<path d="M120.114 25.5012H114.998V23.4151C114.392 24.2415 113.661 24.8562 112.803 25.2593C111.955 25.6523 111.022 25.8488 110.003 25.8488C108.67 25.8488 107.48 25.612 106.43 25.1384C105.381 24.6647 104.493 24.0198 103.766 23.2035C103.039 22.3771 102.484 21.4097 102.101 20.3012C101.717 19.1926 101.526 18.0035 101.526 16.7337C101.526 15.464 101.717 14.2748 102.101 13.1663C102.484 12.0578 103.039 11.0953 103.766 10.2791C104.493 9.45271 105.381 8.80271 106.43 8.32907C107.48 7.85543 108.67 7.6186 110.003 7.6186C110.679 7.6186 111.319 7.71938 111.925 7.92093C112.541 8.12248 113.101 8.40969 113.605 8.78256C114.12 9.14535 114.569 9.58876 114.952 10.1128C115.346 10.6267 115.654 11.2012 115.876 11.836L118.146 8.04186H120.114V25.5012ZM114.968 16.7337C114.968 16.2802 114.942 15.8015 114.892 15.2977C114.852 14.7938 114.776 14.295 114.665 13.8012C114.554 13.3074 114.397 12.8388 114.196 12.3953C114.004 11.9419 113.752 11.5438 113.439 11.2012C113.136 10.8484 112.768 10.5713 112.334 10.3698C111.9 10.1682 111.395 10.0674 110.82 10.0674C110.245 10.0674 109.745 10.1733 109.321 10.3849C108.898 10.5864 108.534 10.8636 108.231 11.2163C107.929 11.5589 107.676 11.957 107.475 12.4105C107.283 12.864 107.132 13.3376 107.02 13.8314C106.909 14.3252 106.829 14.824 106.778 15.3279C106.738 15.8217 106.718 16.2903 106.718 16.7337C106.718 17.1771 106.738 17.6508 106.778 18.1546C106.829 18.6585 106.909 19.1574 107.02 19.6512C107.132 20.145 107.283 20.6186 107.475 21.0721C107.676 21.5256 107.929 21.9287 108.231 22.2814C108.534 22.624 108.898 22.9012 109.321 23.1128C109.745 23.3143 110.245 23.4151 110.82 23.4151C111.345 23.4151 111.809 23.3093 112.213 23.0977C112.626 22.876 112.985 22.5837 113.287 22.2209C113.6 21.8581 113.863 21.445 114.074 20.9814C114.286 20.5178 114.458 20.0391 114.589 19.5453C114.72 19.0515 114.816 18.5628 114.877 18.0791C114.937 17.5853 114.968 17.1368 114.968 16.7337Z" fill="#592D1E" fill-opacity="0.65"/>
<path d="M129.363 23.2337C129.363 23.6167 129.292 23.9795 129.151 24.3221C129.01 24.6546 128.813 24.9469 128.561 25.1988C128.309 25.4407 128.016 25.6322 127.683 25.7733C127.35 25.9244 126.992 26 126.608 26C126.225 26 125.866 25.9244 125.533 25.7733C125.2 25.6322 124.908 25.4407 124.655 25.1988C124.403 24.9469 124.206 24.6546 124.065 24.3221C123.924 23.9795 123.853 23.6167 123.853 23.2337C123.853 22.8609 123.924 22.5081 124.065 22.1756C124.206 21.8329 124.403 21.5407 124.655 21.2988C124.908 21.0469 125.2 20.8504 125.533 20.7093C125.866 20.5581 126.225 20.4826 126.608 20.4826C126.992 20.4826 127.35 20.5581 127.683 20.7093C128.016 20.8504 128.309 21.0469 128.561 21.2988C128.813 21.5407 129.01 21.8329 129.151 22.1756C129.292 22.5081 129.363 22.8609 129.363 23.2337Z" fill="#592D1E" fill-opacity="0.65"/>
<path d="M138.461 3.82442C138.461 4.20736 138.385 4.57015 138.234 4.91279C138.092 5.25543 137.895 5.55271 137.643 5.80465C137.391 6.05659 137.093 6.25814 136.75 6.4093C136.407 6.55039 136.044 6.62093 135.66 6.62093C135.277 6.62093 134.913 6.55039 134.57 6.4093C134.237 6.25814 133.945 6.05659 133.692 5.80465C133.44 5.55271 133.238 5.25543 133.087 4.91279C132.946 4.57015 132.875 4.20736 132.875 3.82442C132.875 3.44147 132.946 3.08372 133.087 2.75116C133.238 2.40853 133.44 2.11124 133.692 1.8593C133.945 1.60736 134.237 1.41085 134.57 1.26977C134.913 1.1186 135.277 1.04302 135.66 1.04302C136.044 1.04302 136.407 1.1186 136.75 1.26977C137.093 1.41085 137.391 1.60736 137.643 1.8593C137.895 2.11124 138.092 2.40853 138.234 2.75116C138.385 3.08372 138.461 3.44147 138.461 3.82442ZM138.234 25.5012H133.102V8.05698H138.234V25.5012Z" fill="#592D1E" fill-opacity="0.65"/>
<path d="M161 16.7337C161 17.6407 160.879 18.4922 160.637 19.2884C160.395 20.0845 160.056 20.8202 159.622 21.4953C159.199 22.1705 158.684 22.7802 158.079 23.3244C157.473 23.8585 156.807 24.312 156.08 24.6849C155.364 25.0578 154.592 25.345 153.764 25.5465C152.947 25.7481 152.104 25.8488 151.236 25.8488C150.369 25.8488 149.526 25.7481 148.709 25.5465C147.891 25.345 147.119 25.0578 146.393 24.6849C145.676 24.312 145.015 23.8585 144.41 23.3244C143.804 22.7802 143.284 22.1705 142.85 21.4953C142.427 20.8202 142.094 20.0845 141.851 19.2884C141.609 18.4822 141.488 17.6306 141.488 16.7337C141.488 15.8368 141.609 14.9903 141.851 14.1942C142.094 13.388 142.427 12.6473 142.85 11.9721C143.284 11.2969 143.804 10.6922 144.41 10.1581C145.015 9.61395 145.676 9.15543 146.393 8.78256C147.119 8.40969 147.891 8.12248 148.709 7.92093C149.526 7.71938 150.369 7.6186 151.236 7.6186C152.104 7.6186 152.947 7.71938 153.764 7.92093C154.592 8.12248 155.364 8.40969 156.08 8.78256C156.807 9.15543 157.473 9.61395 158.079 10.1581C158.684 10.6922 159.199 11.2969 159.622 11.9721C160.056 12.6473 160.395 13.388 160.637 14.1942C160.879 14.9903 161 15.8368 161 16.7337ZM155.793 16.7337C155.793 16.25 155.762 15.7411 155.702 15.207C155.651 14.6628 155.561 14.1337 155.429 13.6198C155.298 13.0957 155.117 12.5969 154.885 12.1233C154.663 11.6395 154.385 11.2213 154.052 10.8686C153.719 10.5058 153.32 10.2186 152.856 10.007C152.392 9.78527 151.852 9.67442 151.236 9.67442C150.651 9.67442 150.131 9.78527 149.677 10.007C149.223 10.2287 148.825 10.526 148.481 10.8988C148.148 11.2616 147.866 11.6849 147.634 12.1686C147.412 12.6523 147.23 13.1562 147.089 13.6802C146.948 14.1942 146.847 14.7182 146.786 15.2523C146.726 15.7764 146.695 16.2702 146.695 16.7337C146.695 17.1973 146.726 17.6961 146.786 18.2302C146.847 18.7543 146.948 19.2783 147.089 19.8023C147.23 20.3264 147.412 20.8302 147.634 21.314C147.866 21.7876 148.148 22.2109 148.481 22.5837C148.825 22.9465 149.223 23.2388 149.677 23.4605C150.131 23.6822 150.651 23.793 151.236 23.793C151.842 23.793 152.377 23.6872 152.841 23.4756C153.305 23.2539 153.704 22.9616 154.037 22.5988C154.38 22.236 154.663 21.8178 154.885 21.3442C155.107 20.8705 155.283 20.3717 155.414 19.8477C155.556 19.3236 155.651 18.7946 155.702 18.2605C155.762 17.7264 155.793 17.2174 155.793 16.7337Z" fill="#592D1E" fill-opacity="0.65"/>
</svg>
