<svg width="133" height="18" viewBox="0 0 133 18" fill="none" xmlns="http://www.w3.org/2000/svg">
<path d="M11.0635 18C4.17267 18 0.214594 16.355 0 11.8728H5.81789C5.81789 13.1126 7.10545 13.947 10.8251 13.947C14.6163 13.947 15.3316 13.4225 15.3316 12.5166C15.3316 11.4675 14.6878 11.253 10.539 10.9907L9.70443 10.943C3.14738 10.5616 0.262282 8.9404 0.262282 5.26887C0.262282 1.76424 4.00576 0 9.89518 0C16.6191 0 20.2195 2.05033 20.4341 5.84106H14.6163C14.6163 4.5298 13.0664 4.05298 9.84749 4.05298C6.81933 4.05298 6.08017 4.5298 6.08017 5.26887C6.08017 6.15099 6.72395 6.48477 10.5628 6.74702L11.5404 6.81854C17.3821 7.27152 21.1495 7.89139 21.1495 12.302C21.1495 16.6172 17.3821 18 11.0635 18Z" fill="#592D1E" fill-opacity="0.65"/>
<path d="M21.5852 17.5232L30.3597 0.405297H37.5128L46.2635 17.5232H40.2787L38.7766 14.3523H29.0721L27.5461 17.5232H21.5852ZM30.9796 10.3232H36.8452L33.9124 4.19603L30.9796 10.3232Z" fill="#592D1E" fill-opacity="0.65"/>
<path d="M48.1589 17.5232V0.405297H56.9096L61.9883 11.0623L67.0432 0.405297H75.77V17.5232H70.1667V5.72185L64.5873 17.5232H59.3655L53.7622 5.72185V17.5232H48.1589Z" fill="#592D1E" fill-opacity="0.65"/>
<path d="M78.1443 5.12583V0.405297H98.507V5.12583H91.1392V17.5232H85.5359V5.12583H78.1443Z" fill="#592D1E" fill-opacity="0.65"/>
<path d="M100.853 17.5232V0.405297H106.456V17.5232H100.853Z" fill="#592D1E" fill-opacity="0.65"/>
<path d="M116.643 17.5232L108.322 0.405297H114.283L120.649 13.7324L127.015 0.405297H133L124.631 17.5232H116.643Z" fill="#592D1E" fill-opacity="0.65"/>
</svg>
