<svg width="100" height="24" viewBox="0 0 100 24" fill="none" xmlns="http://www.w3.org/2000/svg">
<path d="M2.09629 5.96488C1.95638 6.80068 2.13127 7.53578 2.62096 8.17018C3.11065 8.79451 3.84519 9.37353 4.82458 9.90723C5.81396 10.4409 6.91827 10.9847 8.13751 11.5386C9.36674 12.0924 10.4261 12.6462 11.3155 13.2001C12.215 13.7539 12.9595 14.4336 13.5491 15.2392C14.1387 16.0448 14.4236 16.9914 14.4036 18.0789C14.3736 19.388 14.0088 20.4806 13.3093 21.3567C12.6097 22.2327 11.6953 22.8822 10.566 23.3052C9.44669 23.7281 8.23245 23.9497 6.92327 23.9698C5.33426 23.9899 3.92015 23.7634 2.68092 23.2901C1.45169 22.8067 0.597226 21.8602 0.117526 20.4504C-0.022386 20.0174 -0.0373766 19.6095 0.0725546 19.2269C0.182486 18.8442 0.397351 18.5673 0.717151 18.3961C0.986982 18.2652 1.30179 18.2249 1.66156 18.2753C2.01134 18.3256 2.27618 18.5321 2.45606 18.8946C2.63595 19.2571 2.83582 19.816 3.05569 20.5712C3.22558 21.1653 3.44045 21.6688 3.70028 22.0817C3.96012 22.4946 4.36487 22.8369 4.91452 23.1088C5.47417 23.3807 6.2237 23.5166 7.16312 23.5166C8.16249 23.5066 9.1069 23.2699 9.99634 22.8067C10.8958 22.3435 11.5953 21.7444 12.095 21.0093C12.6047 20.2641 12.8096 19.4786 12.7096 18.6529C12.6197 17.8171 12.16 17.0568 11.3305 16.3721C10.7209 15.8585 9.78148 15.2543 8.51227 14.5595C7.24307 13.8647 5.98885 13.1447 4.74963 12.3995C3.5104 11.6443 2.51602 10.8639 1.76649 10.0583C1.01696 9.24262 0.622211 8.35647 0.582236 7.39984C0.532267 6.10083 0.867057 5.03342 1.58661 4.19762C2.30616 3.36182 3.25057 2.79791 4.41983 2.50588C5.59909 2.20379 6.83332 2.17861 8.12251 2.43036C9.4217 2.67204 10.581 3.16546 11.6003 3.91063C11.9401 4.16238 12.2499 4.47958 12.5298 4.86223C12.8096 5.23482 12.9845 5.61244 13.0544 5.99509C13.1244 6.36768 13.0694 6.69998 12.8895 6.99201C12.7196 7.27396 12.4848 7.47033 12.185 7.58109C11.8952 7.68179 11.6053 7.69186 11.3155 7.6113C11.0357 7.53075 10.8008 7.36963 10.611 7.12795C10.4311 6.88627 10.3411 6.59928 10.3411 6.26698C10.3411 5.96488 10.4261 5.68796 10.596 5.43621C10.536 4.80181 10.2812 4.26811 9.83144 3.83511C9.38173 3.4021 8.85206 3.07987 8.24244 2.8684C7.64282 2.65693 7.07817 2.54113 6.5485 2.52099C5.43919 2.49078 4.4648 2.79288 3.62533 3.42728C2.79585 4.05161 2.28617 4.89748 2.09629 5.96488Z" fill="#592D1E" fill-opacity="0.65"/>
<path d="M28.8246 21.0999C29.3942 21.2509 29.749 21.6134 29.8889 22.1874C29.9888 22.6406 29.8939 23.0434 29.6041 23.3958C29.3242 23.7382 28.9645 23.9094 28.5247 23.9094C28.5547 23.9094 28.5447 23.9094 28.4948 23.9094H16.6672V2.20379H18.496V23.4411H26.2162C26.476 23.4411 26.6909 23.3505 26.8608 23.1692C27.0307 22.9779 27.1156 22.7564 27.1156 22.5046C27.1156 22.4946 27.1156 22.4895 27.1156 22.4895C27.1156 22.0364 27.2855 21.6688 27.6253 21.3869C27.9751 21.1049 28.3748 21.0093 28.8246 21.0999Z" fill="#592D1E" fill-opacity="0.65"/>
<path d="M38.1337 2.234H40.0975L46.5435 23.9245H44.4298L41.2368 13.2001C39.328 13.764 37.659 14.7005 36.2299 16.0096C34.8108 17.3086 33.8064 18.8241 33.2168 20.5561L33.2018 20.5712C33.1618 20.7122 33.1818 20.8431 33.2618 20.9639C33.3517 21.0747 33.4716 21.1351 33.6216 21.1452C33.6715 21.1452 33.7165 21.1452 33.7565 21.1452C34.0563 21.1955 34.3111 21.3315 34.521 21.553C34.7409 21.7746 34.8708 22.0414 34.9107 22.3536C34.9607 22.7664 34.8458 23.129 34.566 23.4411C34.2961 23.7533 33.9563 23.9094 33.5466 23.9094C33.1668 23.9094 32.842 23.7734 32.5722 23.5015C32.3024 23.2297 32.1675 22.9024 32.1675 22.5197C32.1675 22.409 32.1825 22.2781 32.2124 22.127L38.0588 2.49078L38.1337 2.234ZM33.9663 18.0034C34.6959 16.7044 35.6653 15.5715 36.8745 14.6048C38.0938 13.628 39.4729 12.903 41.0119 12.4297L38.3136 3.39707L33.9663 18.0034Z" fill="#592D1E" fill-opacity="0.65"/>
<path d="M58.1762 2.20379C58.526 2.20379 58.8258 2.33973 59.0756 2.61162C59.3355 2.8835 59.4654 3.21077 59.4654 3.59343C59.4654 3.97608 59.3355 4.30335 59.0756 4.57524C58.8258 4.84713 58.526 4.98307 58.1762 4.98307C58.1662 4.98307 58.1612 4.98307 58.1612 4.98307C57.8014 4.973 57.4766 5.0737 57.1868 5.28517C56.907 5.48656 56.7221 5.75845 56.6321 6.10083L52.2099 23.7432L52.15 24H50.501L45.0594 2.30952H46.8433C48.3723 8.41186 50.0862 15.2594 51.9851 22.852C57.2618 1.79596 58.8957 -4.70917 56.887 3.33665C56.9669 3.00434 57.1218 2.73246 57.3517 2.52099C57.5915 2.30952 57.8664 2.20379 58.1762 2.20379Z" fill="#592D1E" fill-opacity="0.65"/>
<path d="M61.729 23.6979V2.00743H63.5578V23.6979H61.729Z" fill="#592D1E" fill-opacity="0.65"/>
<path d="M76.3148 2.234C77.654 2.3347 78.9032 2.71232 80.0625 3.36686C81.2218 4.01133 82.2161 4.8723 83.0456 5.94978C83.3254 6.30222 83.4204 6.70502 83.3304 7.15816C83.2605 7.45019 83.1056 7.70193 82.8657 7.9134C82.6359 8.12487 82.371 8.24067 82.0712 8.26081C81.6015 8.29102 81.2168 8.13997 80.9169 7.80767C80.6171 7.46529 80.5022 7.05243 80.5722 6.56907C80.6921 6.05551 80.9969 5.70307 81.4866 5.51174C81.4966 5.51174 81.5016 5.5067 81.5016 5.49663C81.6615 5.44628 81.7564 5.34055 81.7864 5.17943C81.8164 5.00825 81.7714 4.86727 81.6515 4.7565C81.4316 4.5551 81.2118 4.37384 80.9919 4.21273C79.7727 3.30644 78.4085 2.87343 76.8995 2.91371C75.3904 2.94392 73.9213 3.41217 72.4922 4.31846C71.0631 5.22475 69.8589 6.47845 68.8795 8.07955C67.9001 9.69073 67.2955 11.3976 67.0656 13.2001C66.8458 15.0026 67.0057 16.6842 67.5453 18.2451C68.085 19.7958 68.9644 21.0193 70.1837 21.9155C71.253 22.7111 72.4473 23.1441 73.7664 23.2146C75.0956 23.275 76.4098 22.988 77.709 22.3536C79.0081 21.7192 80.1674 20.7877 81.1868 19.5592C81.4866 19.8009 81.8214 19.9318 82.1911 19.9519C82.5509 19.9821 82.8907 19.9066 83.2105 19.7253C82.2211 21.115 80.9869 22.1874 79.5078 22.9427C78.0387 23.6878 76.4847 24 74.8457 23.8792C73.0769 23.7583 71.4779 23.1642 70.0488 22.0968C68.6296 21.0193 67.5403 19.6246 66.7808 17.9128C66.0213 16.1908 65.7065 14.348 65.8364 12.3844C65.9663 10.4208 66.526 8.64347 67.5153 7.05243C68.5047 5.45132 69.7789 4.21776 71.3379 3.35175C72.897 2.48574 74.5559 2.11316 76.3148 2.234Z" fill="#592D1E" fill-opacity="0.65"/>
<path d="M91.5903 2.234H93.554L100 23.9245H97.8863L94.6933 13.2001C92.7845 13.764 91.1156 14.7005 89.6865 16.0096C88.2673 17.3086 87.263 18.8241 86.6733 20.5561L86.6583 20.5712C86.6184 20.7122 86.6384 20.8431 86.7183 20.9639C86.8083 21.0747 86.9282 21.1351 87.0781 21.1452C87.1281 21.1452 87.173 21.1452 87.213 21.1452C87.5128 21.1955 87.7677 21.3315 87.9775 21.553C88.1974 21.7746 88.3273 22.0414 88.3673 22.3536C88.4173 22.7664 88.3023 23.129 88.0225 23.4411C87.7527 23.7533 87.4129 23.9094 87.0031 23.9094C86.6234 23.9094 86.2986 23.7734 86.0287 23.5015C85.7589 23.2297 85.624 22.9024 85.624 22.5197C85.624 22.409 85.639 22.2781 85.669 22.127L91.5153 2.49078L91.5903 2.234ZM87.4229 18.0034C88.1524 16.7044 89.1218 15.5715 90.3311 14.6048C91.5503 13.628 92.9294 12.903 94.4685 12.4297L91.7701 3.39707L87.4229 18.0034Z" fill="#592D1E" fill-opacity="0.65"/>
</svg>
