<svg width="73" height="20" viewBox="0 0 73 20" fill="none" xmlns="http://www.w3.org/2000/svg">
<path d="M14.1522 0.299284V12.4398C14.1522 13.4808 14.106 14.3743 14.0138 15.1204C13.9299 15.8664 13.7748 16.53 13.5483 17.1113C13.3219 17.6838 13.0368 18.1522 12.6929 18.5166C12.3575 18.8723 11.913 19.1672 11.3595 19.4014C10.8143 19.627 10.2021 19.7831 9.52283 19.8699C8.84353 19.9566 8.02166 20 7.05721 20C6.12631 20 5.33379 19.961 4.67965 19.8829C4.0255 19.8048 3.42168 19.6617 2.86817 19.4535C2.31466 19.2366 1.86599 18.9547 1.52214 18.6077C1.18669 18.252 0.897352 17.7922 0.654144 17.2284C0.410937 16.6558 0.239014 15.9835 0.138377 15.2115C0.0461256 14.4394 0 13.5155 0 12.4398V0.299284H2.55368V12.7781C2.55368 13.4982 2.55368 14.0187 2.55368 14.3396C2.56207 14.6606 2.58722 15.0553 2.62916 15.5237C2.67109 15.9835 2.7256 16.3002 2.79269 16.4736C2.85979 16.6385 2.96881 16.8467 3.11977 17.0982C3.27911 17.3498 3.45522 17.5103 3.64811 17.5797C3.84939 17.6404 4.12195 17.7185 4.46579 17.8139C4.80964 17.9093 5.17864 17.9657 5.57281 17.9831C5.97536 17.9918 6.47435 17.9961 7.06979 17.9961C7.77425 17.9961 8.36131 17.9744 8.83095 17.931C9.30898 17.8877 9.72411 17.8009 10.0763 17.6708C10.4286 17.5407 10.6969 17.3932 10.8814 17.2284C11.0743 17.0549 11.2253 16.8033 11.3343 16.4736C11.4517 16.144 11.5272 15.8013 11.5607 15.4457C11.5943 15.09 11.6111 14.6172 11.6111 14.0273L11.5985 0.299284H14.1522Z" fill="#592D1E" fill-opacity="0.65"/>
<path d="M31.9902 19.6877H29.3359L20.4043 4.37215V19.6877H18.1651V0.299284H20.7439L29.751 15.823V0.299284H31.9902V19.6877Z" fill="#592D1E" fill-opacity="0.65"/>
<path d="M38.8084 19.6877H36.2547V0.299284H38.8084V19.6877Z" fill="#592D1E" fill-opacity="0.65"/>
<path d="M54.0927 13.676L56.2816 14.0143C56.2396 14.8471 56.1684 15.5584 56.0677 16.1483C55.9671 16.7296 55.8161 17.2501 55.6149 17.7098C55.422 18.1696 55.183 18.5426 54.8978 18.8289C54.6127 19.1065 54.2437 19.3364 53.7908 19.5185C53.3463 19.7007 52.8431 19.8265 52.2812 19.8959C51.7277 19.9653 51.0568 20 50.2685 20C49.5137 20 48.8386 19.9783 48.2431 19.9349C47.6477 19.9002 47.1026 19.8178 46.6078 19.6877C46.1214 19.5489 45.6937 19.4188 45.3247 19.2973C44.964 19.1672 44.6412 18.9547 44.356 18.6597C44.0793 18.3648 43.8444 18.1002 43.6516 17.866C43.4671 17.6318 43.3077 17.2761 43.1735 16.799C43.0477 16.3132 42.9513 15.8881 42.8842 15.5237C42.8171 15.1594 42.7626 14.6302 42.7207 13.9362C42.6871 13.2422 42.6661 12.635 42.6578 12.1145C42.6494 11.594 42.6452 10.874 42.6452 9.95446C42.6452 8.98287 42.6494 8.20213 42.6578 7.61223C42.6661 7.02234 42.6913 6.38039 42.7332 5.6864C42.7752 4.99241 42.8255 4.45457 42.8842 4.07287C42.9513 3.69117 43.0519 3.27478 43.1861 2.82368C43.3287 2.36391 43.488 2.02559 43.6641 1.80872C43.8403 1.58317 44.0709 1.34027 44.356 1.08003C44.6412 0.819779 44.9515 0.641943 45.2869 0.546519C45.6308 0.44242 46.0459 0.338321 46.5323 0.234223C47.0187 0.130124 47.5387 0.0650618 48.0922 0.0390371C48.6541 0.0130124 49.304 0 50.042 0C50.8052 0 51.4552 0.0303622 51.9919 0.0910865C52.5286 0.143136 53.0318 0.251572 53.5015 0.416396C53.9711 0.572544 54.3569 0.785079 54.6588 1.054C54.9607 1.31425 55.2249 1.65691 55.4513 2.08198C55.6861 2.50705 55.8664 3.01019 55.9922 3.59141C56.118 4.16396 56.2103 4.85361 56.269 5.66038L54.0676 6.1028C54.0256 5.66038 53.9879 5.29169 53.9543 4.99675C53.9208 4.7018 53.8705 4.41119 53.8034 4.12492C53.7447 3.83865 53.6944 3.60876 53.6524 3.43526C53.6189 3.25309 53.5434 3.07959 53.426 2.91477C53.3086 2.74127 53.2121 2.61115 53.1367 2.5244C53.0696 2.43765 52.9396 2.35524 52.7467 2.27716C52.5538 2.19909 52.3903 2.14704 52.2561 2.12102C52.1303 2.08632 51.9164 2.05595 51.6145 2.02993C51.321 2.0039 51.0652 1.99089 50.8471 1.99089C50.6291 1.99089 50.3104 1.99089 49.8911 1.99089C49.304 1.99089 48.8218 1.99957 48.4444 2.01692C48.0754 2.02559 47.7022 2.05595 47.3248 2.108C46.9558 2.15138 46.6623 2.22078 46.4443 2.3162C46.2346 2.40295 46.0375 2.5244 45.853 2.68055C45.6685 2.82802 45.5343 3.01453 45.4505 3.24008C45.375 3.45695 45.3289 3.72154 45.3121 4.03383C45.2366 6.32401 45.1989 8.6619 45.1989 11.0475C45.1989 12.7131 45.2366 14.3396 45.3121 15.9271C45.354 16.4216 45.4882 16.8076 45.7146 17.0852C45.9495 17.3628 46.3981 17.584 47.0607 17.7489C47.7316 17.9137 48.6792 17.9961 49.9037 17.9961C50.5578 17.9961 51.1071 17.9787 51.5516 17.944C51.9961 17.9007 52.3693 17.8096 52.6712 17.6708C52.9731 17.5233 53.2037 17.3932 53.3631 17.2804C53.5224 17.159 53.6482 16.9291 53.7405 16.5908C53.8411 16.2524 53.904 15.9705 53.9292 15.745C53.9627 15.5107 53.9963 15.116 54.0298 14.5608C54.0382 14.4394 54.0424 14.344 54.0424 14.2746C54.0508 14.2052 54.0592 14.1141 54.0676 14.0013C54.0759 13.8799 54.0843 13.7714 54.0927 13.676Z" fill="#592D1E" fill-opacity="0.65"/>
<path d="M73 19.6877H70.4086L68.9871 14.73H62.0557L60.6845 19.6877H58.2314L63.9804 0.299284H67.3895L73 19.6877ZM68.4587 12.8562L66.8737 7.03969L65.5654 2.27716C65.079 4.07287 64.6513 5.617 64.2823 6.90956L62.5966 12.8562H68.4587Z" fill="#592D1E" fill-opacity="0.65"/>
</svg>
