<svg width="131" height="24" viewBox="0 0 131 24" fill="none" xmlns="http://www.w3.org/2000/svg">
<path d="M0 0H8.00036V24H0V0Z" fill="#592D1E" fill-opacity="0.65"/>
<path d="M12.0005 0H16.0007V24H12.0005V0Z" fill="#592D1E" fill-opacity="0.65"/>
<path d="M38.7288 12.78C41.7689 12.78 43.289 13.7467 43.289 15.68C43.289 16.5867 43.0823 17.36 42.669 18C42.2556 18.6267 41.5156 19.12 40.4489 19.48C39.3821 19.8267 37.9021 20 36.0087 20H27.0083C27.1149 17.4133 27.1683 14.9933 27.1683 12.74C27.1683 10.4867 27.1149 8.06667 27.0083 5.48H31.7085V5.5H35.9687C37.6221 5.5 38.9221 5.64 39.8688 5.92C40.8289 6.18667 41.5022 6.58 41.8889 7.1C42.2889 7.62 42.489 8.28 42.489 9.08C42.489 9.89333 42.2023 10.62 41.6289 11.26C41.0689 11.8867 40.1022 12.3933 38.7288 12.78ZM31.7085 9.14V11H35.5486C36.3753 11 36.9487 10.9267 37.2687 10.78C37.6021 10.6333 37.7687 10.3667 37.7687 9.98C37.7687 9.67333 37.5954 9.46 37.2487 9.34C36.9154 9.20667 36.3487 9.14 35.5486 9.14H31.7085ZM35.5486 16.34C36.242 16.34 36.7687 16.3133 37.1287 16.26C37.5021 16.1933 37.7687 16.0867 37.9287 15.94C38.0888 15.78 38.1688 15.5667 38.1688 15.3C38.1688 14.9533 37.9754 14.7067 37.5887 14.56C37.2154 14.4 36.5354 14.32 35.5486 14.32H31.7085V16.34H35.5486Z" fill="#592D1E" fill-opacity="0.65"/>
<path d="M53.7806 20.2C50.7271 20.2 48.4803 19.54 47.0403 18.22C45.6002 16.8867 44.8802 15.02 44.8802 12.62C44.8802 10.2467 45.5935 8.39333 47.0203 7.06C48.4603 5.72667 50.7138 5.06 53.7806 5.06C56.8607 5.06 59.1141 5.72667 60.5409 7.06C61.9809 8.39333 62.701 10.2467 62.701 12.62C62.701 15.0333 61.9876 16.9 60.5609 18.22C59.1341 19.54 56.874 20.2 53.7806 20.2ZM53.7806 16.12C55.2606 16.12 56.3273 15.84 56.9807 15.28C57.6341 14.7067 57.9607 13.82 57.9607 12.62C57.9607 11.4467 57.6341 10.5733 56.9807 10C56.3273 9.42667 55.2606 9.14 53.7806 9.14C52.3138 9.14 51.2538 9.42667 50.6004 10C49.9471 10.5733 49.6204 11.4467 49.6204 12.62C49.6204 13.8067 49.9471 14.6867 50.6004 15.26C51.2538 15.8333 52.3138 16.12 53.7806 16.12Z" fill="#592D1E" fill-opacity="0.65"/>
<path d="M74.7356 20C74.1089 18.8667 73.0688 17.1333 71.6154 14.8L69.2753 17.12V20H64.2951C64.4018 17.4133 64.4551 14.9933 64.4551 12.74C64.4551 10.4867 64.4018 8.06667 64.2951 5.48H69.2753V11.34C71.7288 8.91333 73.4755 6.96 74.5156 5.48H80.9959L74.6956 11.72C75.6289 13.0267 76.6757 14.4467 77.8357 15.98C79.0091 17.5133 80.0692 18.8533 81.0159 20H74.7356Z" fill="#592D1E" fill-opacity="0.65"/>
<path d="M94.2368 9.46C92.65 9.38 91.4766 9.33333 90.7166 9.32V16.16C91.49 16.1467 92.6634 16.1 94.2368 16.02V20H82.6162V16.02C84.1497 16.1 85.3164 16.1467 86.1164 16.16V9.32C85.3164 9.33333 84.1497 9.38 82.6162 9.46V5.48H94.2368V9.46Z" fill="#592D1E" fill-opacity="0.65"/>
<path d="M112.62 5.5C112.527 7.75333 112.48 10.1667 112.48 12.74C112.48 15.3267 112.527 17.7467 112.62 20H105.46L100.62 9.08L100.98 20H95.8395C95.9462 17.4133 95.9995 14.9933 95.9995 12.74C95.9995 10.5 95.9462 8.08667 95.8395 5.5H103.2L108.06 16.72L107.72 5.5H112.62Z" fill="#592D1E" fill-opacity="0.65"/>
<path d="M122.46 11.72H131V20H127.48L127.06 16.46C126.66 17.7267 125.946 18.6667 124.92 19.28C123.893 19.8933 122.64 20.2 121.16 20.2C119.813 20.2 118.613 19.9 117.559 19.3C116.519 18.7 115.699 17.84 115.099 16.72C114.513 15.6 114.219 14.2933 114.219 12.8C114.219 10.4133 114.933 8.52667 116.359 7.14C117.786 5.75333 120.006 5.06 123.02 5.06C124.74 5.06 126.253 5.34 127.56 5.9C128.88 6.46 130 7.32667 130.92 8.5C130.32 8.80667 129.147 9.42 127.4 10.34L126.9 10.62C126.38 10.1 125.773 9.71333 125.08 9.46C124.386 9.19333 123.653 9.06 122.88 9.06C121.6 9.06 120.646 9.4 120.02 10.08C119.393 10.7467 119.079 11.5733 119.079 12.56C119.079 13.6267 119.413 14.4867 120.08 15.14C120.76 15.7933 121.793 16.12 123.18 16.12C123.78 16.12 124.36 16.0333 124.92 15.86C125.493 15.6867 125.973 15.3867 126.36 14.96H122.46V11.72Z" fill="#592D1E" fill-opacity="0.65"/>
</svg>
