<svg width="20" height="20" viewBox="0 0 20 20" fill="none" xmlns="http://www.w3.org/2000/svg">
<path d="M0 9.99988C0 7.8193 1.99564 6.0049 5.06889 5.06889C6.0049 1.99564 7.8193 0 10.0001 0C12.1809 0 13.9951 1.99564 14.9311 5.06889C18.0044 6.0049 20 7.81955 20 9.99988C20 12.1802 18.0044 13.9951 14.9311 14.9311C13.9951 18.0046 12.1807 20 10.0001 20C7.81955 20 6.00515 18.0044 5.06889 14.9311C1.9954 13.9951 0 12.1807 0 9.99988ZM10.0001 2.46254C9.33918 2.46254 8.54747 3.18554 7.92248 4.49561C8.58909 4.42247 9.28328 4.3843 10.0001 4.3843C10.717 4.3843 11.4112 4.42247 12.0775 4.49561C11.4528 3.18529 10.6608 2.46254 10.0001 2.46254ZM6.84684 9.99988C6.84684 11.0627 6.94264 12.031 7.10516 12.8946C7.96878 13.0571 8.93705 13.1529 9.99988 13.1529C11.0627 13.1529 12.031 13.0571 12.8946 12.8946C13.0571 12.031 13.1529 11.0627 13.1529 9.99988C13.1529 8.93705 13.0571 7.96877 12.8946 7.10516C12.031 6.94264 11.0627 6.84684 9.99988 6.84684C8.93705 6.84684 7.96878 6.94264 7.10516 7.10516C6.94264 7.96877 6.84684 8.93705 6.84684 9.99988ZM17.5375 9.99988C17.5375 9.33893 16.8145 8.54722 15.5044 7.92248C15.5775 8.58909 15.6157 9.28328 15.6157 9.99988C15.6157 10.7165 15.5775 11.4109 15.5044 12.0775C16.8147 11.4528 17.5375 10.6608 17.5375 9.99988ZM10.0001 17.5375C10.6611 17.5375 11.4528 16.8147 12.0775 15.5044C11.4109 15.5775 10.7167 15.6157 10.0001 15.6157C9.28352 15.6157 8.58909 15.5775 7.92248 15.5044C8.54723 16.8147 9.33918 17.5375 10.0001 17.5375ZM4.49561 12.0775C4.42247 11.4109 4.38431 10.7167 4.38431 9.99988C4.38431 9.28303 4.42247 8.58909 4.49561 7.92248C3.1853 8.54722 2.46254 9.33893 2.46254 9.99988C2.46254 10.6608 3.1853 11.4525 4.49561 12.0775Z" fill="#592D1E" fill-opacity="0.65"/>
</svg>
